<svg xmlns="http://www.w3.org/2000/svg" width="1894.623" height="1598.653" viewBox="0 0 1894.623 1598.653">
  <g id="playAfterBack" transform="translate(0.005 0.005)">
    <g id="Layer_1" data-name="Layer 1">
      <path id="Path_1" data-name="Path 1" d="M253.8,5.76q70.54-.69,108.46,7.75a233.671,233.671,0,0,1,71.87,29.32Q489.66,76,524.06,143.14A316.62,316.62,0,0,1,559.2,286.39q.63,64.13-19,118t-56.61,93.05q-36.94,39.19-88.36,60.65t-112.77,22l-23,.22-.46-47,21-.2q51.88-.51,95.43-18.44a214.931,214.931,0,0,0,74.91-51q31.37-33,47.93-78t16-98.7a272,272,0,0,0-13.71-82.31q-13.37-40.66-37.19-72.5T408.43,81.7a208.09,208.09,0,0,0-61.59-24.45q-32.28-7.09-92.6-6.51l-208.31,2,6.36,652.29-45,.44L.5,8.23Zm4.71,482.57-.42-42.94q47.3-.47,85.45-19.24t59.54-54.26Q424.46,336.4,424,287.84a167.13,167.13,0,0,0-18.89-76Q386.59,176,355.75,157.62q-33.94-19.6-100.65-19l-120.39,1.17,5.51,564.37-45,.44L89.31,97.34l165.37-1.61q51.88-.51,78.65,4.47a137,137,0,0,1,48.37,18.57q26,15.86,45.91,42.63a203.24,203.24,0,0,1,30.49,59.39A222.65,222.65,0,0,1,469,287.4q.6,61.86-26.44,107.24T367.3,463.88q-48.21,23.85-108.79,24.45Zm-30.36,215-42.94.42-5.07-519.38,75.4-.74q53.16-.51,89.09,26.87t36.44,79.78q.53,53.18-34.87,81.37T257.66,400.4l-.44-45Q297.6,355,316,339.47t18.08-46.79q-.35-35.6-16.08-50t-62-14l-32.46.32Z" fill="none" stroke="#f5a801" stroke-miterlimit="10" stroke-width="1"/>
      <path id="Path_2" data-name="Path 2" d="M644.78,699.28l-38.86.38L599.12,2.39,638,2Zm32-697.65,37.57-.37,6.81,697.28-37.57.36ZM753,.88,791.84.5l6.81,697.28-38.85.38Z" fill="none" stroke="#f5a801" stroke-miterlimit="10" stroke-width="1"/>
      <path id="Path_3" data-name="Path 3" d="M1332.34,692.57l-1.95-199.88q-.48-48.56-4.21-79.2T1314,361.08q-8.48-21.78-25-46.15a225.975,225.975,0,0,0-112.94-87.09,202.391,202.391,0,0,0-69-11.6,216,216,0,0,0-112.8,32.29A230.84,230.84,0,0,0,884.14,447.71q.6,61.1,31.27,112.81a221.422,221.422,0,0,0,83,81.25q52.3,29.52,115.19,28.91,10.73-.1,32.4-6.71l.35,36.81q-10.44,4.19-32.42,4.4-72.08.71-133.89-33.33t-97.91-93Q846,519.92,845.31,450.14a265.384,265.384,0,0,1,159.91-246.88,257,257,0,0,1,101.53-21.56q62.36-.62,119.79,29.7t93.73,82.48q20.73,29.18,30.56,53.85t13.87,59.52q4,34.83,4.61,92.3l1.88,192.6Zm-39.62.39-38.85.38-2.11-216.61q-.48-48.27-6.2-71.6t-21.26-46.41a144.58,144.58,0,0,0-52-46q-32.1-17.06-66.82-16.72a137.35,137.35,0,0,0-72.33,21,149.73,149.73,0,0,0-52.59,55.3,148,148,0,0,0-18.93,74.76q.39,40.11,20.39,73a142,142,0,0,0,54.19,51.57q34.17,18.69,74.56,18.3a18.48,18.48,0,0,1,9.23,2.21q16.83-4,25.24-6.67l.39,39.91q-14,5.25-34.46,5.44a182.52,182.52,0,0,1-93.53-24,186.141,186.141,0,0,1-68.78-67.06,179.539,179.539,0,0,1-26.08-92.41A187.861,187.861,0,0,1,947,351.88a190.139,190.139,0,0,1,67.31-70.19,178.35,178.35,0,0,1,93.18-26.6q42.42-.41,83.54,21.43t65.75,58.66q20.49,29.46,26.9,58.4t7,91.06Zm-79.49.77-34.51.34-2.17-222.88q-.52-52.9-15.82-75.51t-52.11-22.24q-31.18.3-50.54,20.56t-19,52.2q.3,30.17,20.3,49.39T1110,514.53q7.15-.07,11.52,2.17a223.59,223.59,0,0,0,22.94-6.6l.36,36.33q-13.52,3.71-27.29,6.63a9.8,9.8,0,0,0-4-1.63,20.482,20.482,0,0,0-3.21-.35q-44.83.43-77.28-30.27t-32.88-74.36q-.45-46.21,30.84-78.81t74.79-33q59.64-.58,82.11,34.73t23.1,97.14Z" fill="none" stroke="#f5a801" stroke-miterlimit="10" stroke-width="1"/>
      <path id="Path_4" data-name="Path 4" d="M1465.71,188.71l2.54,259.69q.84,86.91,50.84,140.87t135.36,53.12q32.21-.32,48.66-2.88t35-12.66q.54,54.66-16.17,85.35t-46.74,42.73q-30,12-75,12.48-60.59.6-97.5-10.55l-.35-35.53q54.86,16.08,90.14,15.74,49.58-.5,74.75-15.17t32.49-49.79q-15.56,6.55-49.06,6.87-66.27.66-116.44-27.23t-77.11-76.19q-27-48.3-27.53-106.84l-2.73-279.63Zm345.57-3.37,4,404.1q.66,67.23-13.08,114t-40.8,75q-27.09,28.26-68,41.31t-95.6,13.59q-54.18.52-94.4-7.52l-.33-34.5q44.84,11.05,97.49,10.55,112.73-1.11,149.13-68.43a172,172,0,0,0,21.77-61.18q5.43-33.66,4.69-108.56-17.7,19.72-51.47,29.71a242,242,0,0,1-66.24,10.3q-69.26.68-109.44-42.93t-41-127.49l-2.39-245,38.85-.38,2.33,238.74q1.37,139.3,109,138.25,120.38-1.18,119.26-116.45l-2.57-262.76Zm39.62-.39,38.85-.38,4.35,445q.59,60.84-18.36,110t-55.28,84.64q-36.35,35.51-86.89,54.4t-113.18,19.51q-52.67.52-116.4-9.34l-.32-32.46q43,10.05,103.8,9.47Q1725.73,864.61,1791,802t64-192Zm-117.06,1.15,2.43,249.21q.88,90-78.61,90.74-39.37.39-55.6-26.29T1585.32,422L1583,187.57l38.86-.38,2.31,236.68q.36,38.1,7.92,51.95t27.23,13.66q20.94-.19,29.63-15.24t8.34-49L1695,186.48Z" fill="none" stroke="#f5a801" stroke-miterlimit="10" stroke-width="1"/>
      <path id="Path_5" data-name="Path 5" d="M253.8,705.76q70.54-.69,108.46,7.75a233.672,233.672,0,0,1,71.87,29.32q55.53,33.2,89.93,100.31A316.62,316.62,0,0,1,559.2,986.39q.63,64.13-19,118t-56.61,93.05q-36.94,39.19-88.36,60.65t-112.77,22l-23,.22-.46-47,21-.2q51.88-.51,95.43-18.44a214.93,214.93,0,0,0,74.91-51q31.37-33,47.93-78t16-98.7a272,272,0,0,0-13.71-82.31q-13.37-40.66-37.19-72.5T408.43,781.7a208.091,208.091,0,0,0-61.59-24.45q-32.28-7.1-92.6-6.51l-208.31,2,6.36,652.29-45,.44L.5,708.23Zm4.71,482.57-.42-42.94q47.3-.47,85.45-19.24t59.54-54.26q21.38-35.49,20.91-84.05a167.13,167.13,0,0,0-18.89-76Q386.59,876,355.75,857.62q-33.94-19.61-100.65-19l-120.39,1.17,5.51,564.37-45,.44L89.31,797.34l165.37-1.61q51.88-.51,78.65,4.47a137,137,0,0,1,48.37,18.57q26,15.86,45.91,42.63a203.24,203.24,0,0,1,30.49,59.39A222.651,222.651,0,0,1,469,987.4q.6,61.86-26.44,107.24t-75.24,69.24q-48.23,23.85-108.81,24.45Zm-30.36,215-42.94.42-5.07-519.38,75.4-.74q53.16-.51,89.09,26.87t36.44,79.78q.53,53.17-34.87,81.37t-88.54,28.73l-.44-45q40.38-.4,58.76-16t18.08-46.79q-.35-35.59-16.08-50t-62-14l-32.46.32Z" fill="none" stroke="#f5a801" stroke-miterlimit="10" stroke-width="1"/>
      <path id="Path_6" data-name="Path 6" d="M644.78,1399.28l-38.86.38-6.8-697.27L638,702Zm32-697.65,37.57-.37,6.81,697.28-37.57.36Zm76.17-.75,38.85-.38,6.81,697.28-38.85.38Z" fill="none" stroke="#f5a801" stroke-miterlimit="10" stroke-width="1"/>
      <path id="Path_7" data-name="Path 7" d="M1332.34,1392.57l-1.95-199.88q-.48-48.56-4.21-79.2T1314,1061.08q-8.48-21.78-25-46.15a225.978,225.978,0,0,0-112.94-87.09,202.388,202.388,0,0,0-69-11.6,216,216,0,0,0-112.8,32.29,230.84,230.84,0,0,0-110.15,199.18q.6,61.1,31.27,112.81a221.42,221.42,0,0,0,83,81.25q52.3,29.52,115.19,28.91,10.73-.11,32.4-6.71l.35,36.81q-10.44,4.18-32.42,4.4-72.08.71-133.89-33.33t-97.91-93q-36.12-58.95-36.79-128.73a265.384,265.384,0,0,1,159.91-246.88,257,257,0,0,1,101.53-21.56q62.36-.62,119.79,29.7t93.73,82.48q20.73,29.18,30.56,53.85t13.87,59.52q4,34.83,4.61,92.3l1.88,192.6Zm-39.62.39-38.85.38-2.11-216.61q-.48-48.27-6.2-71.6t-21.26-46.41a144.58,144.58,0,0,0-52-46q-32.1-17.06-66.82-16.72a137.35,137.35,0,0,0-72.33,21,149.729,149.729,0,0,0-52.59,55.3,148,148,0,0,0-18.93,74.76q.39,40.11,20.39,73a142,142,0,0,0,54.19,51.57q34.17,18.69,74.56,18.3a18.481,18.481,0,0,1,9.23,2.21q16.83-4,25.24-6.67l.39,39.91q-14,5.25-34.46,5.44a182.52,182.52,0,0,1-93.53-24,186.139,186.139,0,0,1-68.78-67.06,179.54,179.54,0,0,1-26.08-92.41A187.861,187.861,0,0,1,947,1051.88a190.138,190.138,0,0,1,67.31-70.19,178.349,178.349,0,0,1,93.18-26.6q42.42-.4,83.54,21.43t65.75,58.66q20.49,29.46,26.9,58.4t7,91.06Zm-79.49.77-34.51.34-2.17-222.88q-.52-52.9-15.82-75.51t-52.11-22.24q-31.18.3-50.54,20.56t-19,52.2q.3,30.16,20.3,49.39t50.67,18.94q7.15-.08,11.52,2.17a223.6,223.6,0,0,0,22.94-6.6l.36,36.33q-13.52,3.71-27.29,6.63a9.8,9.8,0,0,0-4-1.63,20.485,20.485,0,0,0-3.21-.35q-44.83.43-77.28-30.27t-32.88-74.36q-.45-46.21,30.84-78.81t74.79-33q59.64-.58,82.11,34.73t23.09,97.17Z" fill="none" stroke="#f5a801" stroke-miterlimit="10" stroke-width="1"/>
      <path id="Path_8" data-name="Path 8" d="M1465.71,888.71l2.54,259.69q.84,86.91,50.84,140.87t135.36,53.12q32.21-.32,48.66-2.88t35-12.66q.54,54.66-16.17,85.35t-46.74,42.73q-30,12-75,12.48-60.59.6-97.5-10.55l-.35-35.53q54.86,16.08,90.14,15.74,49.58-.49,74.75-15.17t32.49-49.79q-15.56,6.56-49.06,6.87-66.27.66-116.44-27.23t-77.11-76.19q-27-48.3-27.53-106.84l-2.73-279.63Zm345.57-3.37,4,404.1q.66,67.23-13.08,114t-40.8,75q-27.09,28.26-68,41.31t-95.6,13.59q-54.18.52-94.4-7.52l-.33-34.5q44.84,11.06,97.49,10.55,112.73-1.11,149.13-68.43a172,172,0,0,0,21.77-61.18q5.43-33.66,4.69-108.56-17.7,19.73-51.47,29.71a242,242,0,0,1-66.24,10.3q-69.26.67-109.44-42.93t-41-127.49l-2.39-245,38.85-.38,2.33,238.74q1.37,139.3,109,138.25,120.38-1.18,119.26-116.45l-2.57-262.76Zm39.62-.39,38.85-.38,4.35,445q.59,60.84-18.36,110t-55.28,84.64q-36.35,35.5-86.89,54.4t-113.18,19.51q-52.67.53-116.4-9.34l-.32-32.46q43,10.05,103.8,9.47,118.26-1.15,183.55-63.78t64-192Zm-117.06,1.15,2.43,249.21q.88,90-78.61,90.74-39.37.39-55.6-26.29T1585.32,1122L1583,887.57l38.86-.38,2.31,236.68q.36,38.1,7.92,52t27.23,13.66q20.94-.2,29.63-15.24t8.34-49L1695,886.48Z" fill="none" stroke="#f5a801" stroke-miterlimit="10" stroke-width="1"/>
    </g>
  </g>
</svg>
