<svg xmlns="http://www.w3.org/2000/svg" viewBox="0 0 177.05 123.12"><defs><style>.cls-1{fill:#fff;}</style></defs><g id="Layer_2" data-name="Layer 2"><g id="Layer_1-2" data-name="Layer 1"><path class="cls-1" d="M50.33,68.7Q43.76,76.79,37,85.23T23.86,101.76q-3.13,3.88-6.13,7.85a38.94,38.94,0,0,1-6.73,7q-3.9,2.85-7.18,1.35c-1.6-.8-2.67-2.44-3.22-4.94a27.83,27.83,0,0,1-.52-7.92A82.6,82.6,0,0,1,3.67,85.6a163.61,163.61,0,0,1,7.78-20.71A165.62,165.62,0,0,1,21.77,45.52,101.34,101.34,0,0,1,33.13,30.26a9.76,9.76,0,0,1,5.69-2.84,10.51,10.51,0,0,1,6,.45,3,3,0,0,1,1.8,1.35,2,2,0,0,1,0,1.49,4.73,4.73,0,0,1-1.05,1.5A18.19,18.19,0,0,0,44.2,33.7a155.53,155.53,0,0,0-9.5,12.87q-5.46,8.07-10.84,17.79a210.52,210.52,0,0,0-9.8,20.2,107,107,0,0,0-6.35,19.89,26.33,26.33,0,0,0-.53,4A5.06,5.06,0,0,0,7.56,111c.3.54.84.67,1.64.37a11.92,11.92,0,0,0,3.44-2.69A657.05,657.05,0,0,0,56,55.84c.7-1.2,1.47-1.82,2.32-1.87a2.92,2.92,0,0,1,2.24.82A5.27,5.27,0,0,1,62,57.41a6.57,6.57,0,0,1-.15,3.66q-3.74,12.72-7.1,24.76a123.71,123.71,0,0,0-4.26,24.6c-.21,3.49,0,5.66.52,6.51a1.27,1.27,0,0,0,2,.45,10.61,10.61,0,0,0,2.54-2.84c.9-1.35,1.6-2.42,2.1-3.22q8.07-13.45,15.18-27.52L87.06,55.69q7.09-14.05,14.58-27.9T117.79,1a2.61,2.61,0,0,1,1.8-.9,3.93,3.93,0,0,1,1.94.15,1.5,1.5,0,0,1,.53.45c.15.2,0,.6-.38,1.19L120,4.09a266.53,266.53,0,0,0-16.61,27.29Q96,45.53,89,60T75,88.89q-7,14.37-15.26,28A24.33,24.33,0,0,1,56,121.65q-2.18,2.09-5.77,1.2a7.92,7.92,0,0,1-4.8-3.52,18.44,18.44,0,0,1-2.29-5.83,31.94,31.94,0,0,1-.68-6.58q0-3.37.15-5.76a70.91,70.91,0,0,1,2.51-16.83Q47.29,76.48,50.33,68.7Z"/><path class="cls-1" d="M101,68.85c-.8,1.5-1.64,3.24-2.54,5.24A63.88,63.88,0,0,0,96,80.52a72.37,72.37,0,0,0-1.94,7.18,35.25,35.25,0,0,0-.83,7.63q1.2-.9,3.07-4.57T100.52,82q2.31-5.08,4.78-11.06t4.86-11.6q2.4-5.61,4.42-10.24t3.36-7.18c-1.1,0-2.54,0-4.34.15l-5.6.3-5.54.3q-2.61.15-4,.15c-1.9.2-3.17,0-3.82-.53a1.83,1.83,0,0,1-.74-1.87,4.13,4.13,0,0,1,1.19-2,3.66,3.66,0,0,1,2-1.12c1.3-.2,3-.37,5.24-.52s4.48-.27,6.88-.38,4.68-.19,6.88-.29a30.25,30.25,0,0,0,5.23-.6c.6-1.2,1.32-2.59,2.17-4.19s1.74-3.19,2.69-4.79,1.92-3.09,2.92-4.48a25.78,25.78,0,0,1,2.69-3.29,5.77,5.77,0,0,1,2.69-1.35,7.87,7.87,0,0,1,2.85-.08,4.19,4.19,0,0,1,2.17,1,1.48,1.48,0,0,1,.52,1.64L132.9,34.3l42.63,1.5c.2,0,.52.2,1,.59a1.37,1.37,0,0,1,.52,1.35q-12.11.3-23.63.67t-22.73.83c-1,1.69-2.22,4.09-3.67,7.18s-2.92,6.5-4.41,10.24-3,7.63-4.49,11.67-2.82,7.88-4,11.51-2,7-2.69,10a26.61,26.61,0,0,0-.83,6.73q.9.75,3-1.72a72.53,72.53,0,0,0,4.64-6.21q2.55-3.74,5.24-7.92c1.79-2.79,3.29-5,4.48-6.73.8-1,1.55-1.42,2.25-1.27s.64.87-.15,2.16q-3.9,5.69-7.11,11T115.4,97.12a13.07,13.07,0,0,1-3.37,3.37,5.35,5.35,0,0,1-3.51.22,4.8,4.8,0,0,1-3.07-3.44,18.62,18.62,0,0,1-.74-6,45.53,45.53,0,0,1,.59-6.51c.35-2.14.62-3.76.83-4.86s.42-2.22.67-3.37.52-2.31.82-3.51q-2.24,4.78-4.49,9.57t-4.33,8.6a39.64,39.64,0,0,1-3.89,6c-1.2,1.45-2.15,2.08-2.84,1.87q-3.3,0-4.57-2.31a10.07,10.07,0,0,1-1.27-4.86A55.8,55.8,0,0,1,88,77.3a60,60,0,0,1,5.08-12.79,3.29,3.29,0,0,1,2.17-1.12,8,8,0,0,1,3.44,0A4.14,4.14,0,0,1,101.34,65Q102.24,66.32,101,68.85ZM97.45,53A4.6,4.6,0,0,1,100,51.28a5,5,0,0,1,2.85.07,3.55,3.55,0,0,1,2,1.57,3.12,3.12,0,0,1,.08,2.77q-.3.9-2,1.2a9.1,9.1,0,0,1-3.29,0,4.43,4.43,0,0,1-2.54-1.28Q96.25,54.65,97.45,53Z"/><path class="cls-1" d="M126.77,98a5.8,5.8,0,0,1-1.65-.53,4.35,4.35,0,0,1-1.2-.82,5.5,5.5,0,0,1-1.19-4,29.3,29.3,0,0,1,.6-5.76,170.12,170.12,0,0,1,5.3-19.44q3.52-10.62,8-20.94t9.49-19.3a88.11,88.11,0,0,1,9.65-14.36A6.94,6.94,0,0,1,159,10.59a8.09,8.09,0,0,1,3.14-.37,4.58,4.58,0,0,1,2.32.82c.6.45.84.88.74,1.27q-4.33,7-9.19,15.93T146.43,47q-4.71,9.89-8.9,20.42T130.21,88.3c1.49-2.2,3.16-4.44,5-6.74s3.66-4.48,5.46-6.58a74.65,74.65,0,0,1,5.3-5.61,26.29,26.29,0,0,1,4.72-3.66q3.59-1.8,6.2-.45a4.73,4.73,0,0,1,2.77,4.19,10.53,10.53,0,0,1-1,4.86c-.8,1.85-1.72,3.81-2.76,5.91s-2.1,4.16-3.14,6.21a30.76,30.76,0,0,0-2.32,5.75c-.7,2.3-.65,3.5.15,3.59s1.89-.69,3.29-2.39q2.24-2.84,4.26-5.91c1.35-2,2.52-3.94,3.52-5.68s1.84-3.27,2.54-4.56,1.19-2.19,1.49-2.69c1.1-1.7,1.85-2.37,2.25-2s.35,1.07-.15,2.16q-.9,2.1-2.47,5.16T162,86.05q-1.73,3.15-3.52,6.06a40.75,40.75,0,0,1-3.29,4.71,8.35,8.35,0,0,1-3.29,2.47,4.64,4.64,0,0,1-3.74.07,6.56,6.56,0,0,1-2.69-2.09A7,7,0,0,1,144,93.83a11.57,11.57,0,0,1,.52-4.86,48.93,48.93,0,0,1,2.17-6.06c.9-2.09,1.79-4.09,2.69-6a40.66,40.66,0,0,0,1.94-4.64c.5-1.49.63-2.42.38-2.77s-.63-.39-1.12-.15a8.77,8.77,0,0,0-1.72,1.2c-.65.55-1.18,1-1.57,1.27a73.76,73.76,0,0,0-6.88,7.33c-2.6,3.09-5.09,6.34-7.48,9.72q-1.35,2-2.62,3.67a14.78,14.78,0,0,0-2,3.81,8.49,8.49,0,0,1-.67,1.35C127.34,98.12,127.06,98.22,126.77,98Z"/></g></g></svg>